<?xml version="1.0" encoding="UTF-8"?>
<svg version="1.1" xmlns="http://www.w3.org/2000/svg" width="2505" height="1265">
<path d="M0 0 C299.07129531 0 299.07129531 0 324 3.75 C325.14331787 3.91918945 326.28663574 4.08837891 327.46459961 4.26269531 C378.58249261 12.15123742 425.01541091 30.70617964 468.81787109 57.82913208 C474.80171046 61.52015026 480.89342772 65.01649707 487 68.5 C496.54460044 73.95963287 505.97956828 79.58115497 515.3631897 85.3114624 C524.93020874 91.15302652 534.54259238 96.91296454 544.1875 102.625 C546.8998292 104.23161962 549.61210226 105.83833383 552.32421875 107.4453125 C552.98105652 107.83448853 553.63789429 108.22366455 554.31463623 108.62463379 C560.39023536 112.2268037 566.44725484 115.85957008 572.5 119.5 C581.98004947 125.20057373 591.48510115 130.85788699 601 136.5 C611.51697877 142.73632302 622.01701178 148.9993489 632.49487305 155.30126953 C638.21167675 158.73638858 643.9378686 162.15498712 649.67578125 165.5546875 C650.66977684 166.14363297 650.66977684 166.14363297 651.68385315 166.74447632 C653.04177184 167.54893803 654.39970758 168.35337096 655.75765991 169.15777588 C656.43575714 169.55945984 657.11385437 169.9611438 657.8125 170.375 C658.49035553 170.77652283 659.16821106 171.17804565 659.86660767 171.59173584 C669.9235822 177.55154629 679.93113971 183.58720597 689.91030884 189.6762085 C698.7184739 195.04706751 707.58796372 200.3035208 716.5 205.5 C725.99354693 211.03554964 735.43121115 216.65121201 744.8125 222.375 C754.75410544 228.43927404 764.73251239 234.43685022 774.75 240.375 C775.4138269 240.76857697 776.07765381 241.16215393 776.76159668 241.56765747 C781.50658827 244.38036947 786.25320486 247.19033319 791 250 C799.8181452 255.22020308 808.63398691 260.44413278 817.43676758 265.69021606 C820.44433722 267.48198547 823.45406892 269.26976555 826.47119141 271.04541016 C829.61179672 272.89536849 832.74415353 274.75858851 835.875 276.625 C836.76517822 277.14425049 837.65535645 277.66350098 838.57250977 278.19848633 C853.63546835 287.24377634 863.23163685 299.17945769 867.58203125 316.2890625 C870.1709202 333.08054781 866.7333637 348.03473904 857 362 C847.09219881 374.92422778 829.28476208 382.21090774 815.4699707 390.26733398 C806.92420894 395.25563287 798.44394812 400.34148333 790 405.5 C779.95669916 411.63417986 769.84434787 417.63600296 759.67724609 423.5625 C750.72696696 428.78249662 741.84255179 434.09966525 733 439.5 C722.95646341 445.63380175 712.84435646 451.63599795 702.67724609 457.5625 C693.72696696 462.78249662 684.84255179 468.09966525 676 473.5 C665.95646341 479.63380175 655.84435646 485.63599795 645.67724609 491.5625 C636.72696696 496.78249662 627.84255179 502.09966525 619 507.5 C608.95646341 513.63380175 598.84435646 519.63599795 588.67724609 525.5625 C579.72696696 530.78249662 570.84255179 536.09966525 562 541.5 C551.95646341 547.63380175 541.84435646 553.63599795 531.67724609 559.5625 C522.72696519 564.78249765 513.84259075 570.09972626 505 575.5 C494.05623382 582.18320417 483.03283047 588.718799 471.95458984 595.17651367 C466.54979471 598.32788335 461.15581052 601.4891284 455.8269043 604.76757812 C417.02651321 628.58993845 373.77359497 643.54720284 328.9375 650.75 C327.70894287 650.94899902 326.48038574 651.14799805 325.21459961 651.35302734 C218.02926568 667.61331955 108.41168254 655 0 655 C0 438.85 0 222.7 0 0 Z M217 129 C220.52524705 131.86665413 224.01740495 134.30467212 227.953125 136.58203125 C228.52124405 136.91260025 229.0893631 137.24316925 229.67469788 137.58375549 C230.89490677 138.29335746 232.11613449 139.0012099 233.33828735 139.7074585 C236.62516283 141.60739562 239.90393483 143.52123551 243.18359375 145.43359375 C243.84872482 145.82101746 244.5138559 146.20844116 245.19914246 146.60760498 C251.26747617 150.146153 257.29581599 153.74935285 263.3125 157.375 C272.10773417 162.67229906 280.92649231 167.9278636 289.76068115 173.15979004 C300.60906299 179.58485124 311.42401709 186.05868395 322.1875 192.625 C332.0339441 198.62728927 341.92958241 204.53825486 351.875 210.375 C352.49627777 210.74038879 353.11755554 211.10577759 353.75765991 211.48223877 C355.52199242 212.51911861 357.28799723 213.55308113 359.0546875 214.5859375 C360.05999512 215.1742334 361.06530273 215.7625293 362.10107422 216.36865234 C365.02365404 218.01331113 367.99617094 219.51019939 371 221 C371.25547329 212.77677239 371.45060326 204.55521494 371.56993389 196.3289938 C371.62722586 192.50850739 371.70483333 188.69074454 371.82983398 184.87182617 C371.94983901 181.18221151 372.01521487 177.49520523 372.04364967 173.80378914 C372.0638945 172.39965791 372.10343834 170.99566162 372.16303062 169.59264946 C372.34260614 165.18743421 372.31445953 161.22616114 371 157 C367.73209116 153.69421275 364.22363717 151.85928005 360 150 C359.13497864 149.56834534 358.26995728 149.13669067 357.37872314 148.69195557 C355.05566332 147.53386909 352.70555274 146.50512935 350.3125 145.5 C348.97300293 144.93599487 348.97300293 144.93599487 347.60644531 144.3605957 C321.06707733 133.50921861 292.95131034 128.7887906 264.36328125 128.90234375 C262.98894808 128.90421392 261.61461423 128.90563498 260.24028015 128.90663147 C256.66144905 128.91040958 253.08265996 128.92019837 249.50384521 128.93133545 C245.83655363 128.94165204 242.16925511 128.94615082 238.50195312 128.95117188 C231.33461648 128.96182595 224.16731417 128.97884418 217 129 Z M366.21484375 436.17578125 C365.39097168 436.66401367 364.56709961 437.15224609 363.71826172 437.65527344 C362.80061035 438.2021582 361.88295898 438.74904297 360.9375 439.3125 C359.97086426 439.88645508 359.00422852 440.46041016 358.00830078 441.05175781 C355.85025602 442.33331786 353.69273537 443.61576075 351.53564453 444.89892578 C347.82789064 447.10364493 344.11515107 449.29989933 340.40234375 451.49609375 C326.91653819 459.47772502 313.46788806 467.51353188 300.09051514 475.67565918 C291.28207686 481.04671144 282.41227833 486.303274 273.5 491.5 C260.31584237 499.18806882 247.24484654 507.05160895 234.23046875 515.02392578 C231.92408943 516.4347355 229.61445933 517.839079 227.30078125 519.23779297 C226.09631511 519.96966229 224.89188693 520.70159409 223.6875 521.43359375 C222.59824219 522.09286865 221.50898437 522.75214355 220.38671875 523.43139648 C219.59910156 523.94903564 218.81148437 524.4666748 218 525 C218 525.33 218 525.66 218 526 C225.93003268 526.07057904 233.85992678 526.12334315 241.79019928 526.15543652 C245.47548277 526.17086624 249.16054625 526.19166856 252.84570312 526.22631836 C275.08029428 526.42955877 296.99046334 525.80787808 318.6875 520.3125 C319.71166016 520.05831299 320.73582031 519.80412598 321.79101562 519.54223633 C337.32983153 515.52900319 359.31232442 509.68767558 371 498 C371.29357279 495.20696047 371.29357279 495.20696047 371.22705078 491.89794922 C371.22689972 490.61677216 371.22674866 489.33559509 371.22659302 488.01559448 C371.21637895 486.61195726 371.20594695 485.2083216 371.1953125 483.8046875 C371.19158291 482.37265215 371.18873569 480.94061425 371.18673706 479.50857544 C371.17909627 475.73721283 371.15944408 471.96600396 371.1373291 468.19470215 C371.11688019 464.34727051 371.1077374 460.49981406 371.09765625 456.65234375 C371.0761985 449.10149236 371.04205732 441.55076771 371 434 C369.19217642 434 367.73293824 435.273367 366.21484375 436.17578125 Z " fill="#662D90" transform="translate(1516,191)"/>
<path d="M0 0 C48.51 0 97.02 0 147 0 C167.70366837 66.71182032 167.70366837 66.71182032 175.11639404 91.04577637 C176.24705389 94.75611818 177.37947955 98.46592114 178.51171875 102.17578125 C180.16838719 107.60437253 181.82464662 113.0330882 183.48030853 118.46198654 C186.48896801 128.32717192 189.50133845 138.19122012 192.515625 148.0546875 C192.74203423 148.79555729 192.96844345 149.53642708 193.20171356 150.29974747 C194.34410324 154.03787953 195.48655237 157.77599342 196.62902832 161.51409912 C198.69043958 168.25900242 200.75132217 175.00406725 202.81224823 181.7491188 C203.95814417 185.49941905 205.10407378 189.24970901 206.25 193 C206.70833349 194.49999995 207.16666683 195.99999995 207.625 197.5 C207.851875 198.2425 208.07875 198.985 208.3125 199.75 C209 202 209.6875 204.25 210.375 206.5 C210.60187626 207.24250409 210.82875252 207.98500818 211.06250381 208.7500124 C211.5208245 210.24997105 211.97914511 211.74992973 212.43746567 213.24988842 C213.58349203 217.00052117 214.72951952 220.75115358 215.87554932 224.50178528 C217.93574549 231.24422913 219.99593394 237.98667535 222.05607986 244.72913456 C223.1988393 248.46916434 224.3416054 252.20919208 225.484375 255.94921875 C225.82395863 257.06059991 225.82395863 257.06059991 226.17040253 258.19443321 C229.42463822 268.84477007 232.67925455 279.49499056 235.93408585 290.14514542 C238.03947269 297.03423851 240.14476627 303.92336011 242.25 310.8125 C242.47705879 311.55552368 242.70411758 312.29854736 242.93805695 313.06408691 C252.30185508 343.7063973 261.65383862 374.35230587 271 405 C273.81182639 397.88952014 275.965313 390.62242705 278.11328125 383.2890625 C278.51878129 381.91295344 278.92456618 380.53692829 279.33061218 379.16098022 C280.20258615 376.20431356 281.07280943 373.24713961 281.94165039 370.28955078 C283.33630724 365.54239429 284.73506932 360.79645398 286.13476562 356.05078125 C286.37273802 355.24392254 286.61071041 354.43706383 286.85589409 353.60575485 C287.34189995 351.95797753 287.82792237 350.31020509 288.31396103 348.66243744 C289.05666431 346.14411452 289.79900529 343.62568501 290.54129028 341.10723877 C295.21278344 325.26086214 299.91976692 309.42512137 304.6333313 293.59121704 C306.93654205 285.85416693 309.23814538 278.11663875 311.5390625 270.37890625 C311.76688227 269.61277449 311.99470203 268.84664272 312.22942543 268.05729485 C317.29445869 251.02224405 322.33704645 233.98057574 327.375 216.9375 C327.80616079 215.47897288 328.23732331 214.02044627 328.66848755 212.56192017 C329.31880014 210.36205147 329.96911232 208.16218266 330.61942387 205.96231365 C331.27622531 203.74049923 331.93303417 201.51868701 332.58984375 199.296875 C332.80782434 198.55948782 333.02580494 197.82210064 333.25039101 197.06236839 C342.56392588 165.557225 351.89901469 134.05845843 361.2403183 102.5615387 C362.00541133 99.98175376 362.7704401 97.40194976 363.53546143 94.82214355 C366.54775044 84.66451278 369.56184474 74.50741992 372.57815552 64.35098267 C373.508619 61.2178251 374.43852506 58.08450305 375.3678894 54.95101929 C376.45725414 51.27821448 377.54793528 47.60580288 378.63952446 43.9336586 C379.21120689 42.00947698 379.78168051 40.08493633 380.35206604 38.16036987 C384.14483891 25.41119926 388.08759745 12.71530827 392 0 C430.28 0 468.56 0 508 0 C517.17823848 28.68199524 517.17823848 28.68199524 520.6796875 40.5703125 C521.08929318 41.95301914 521.49917013 43.33564543 521.9092865 44.71820068 C522.77990868 47.65478073 523.64899037 50.59180988 524.51675415 53.52923584 C526.66977655 60.81663086 528.83178886 68.10136269 530.99266243 75.38643265 C531.75927084 77.97121283 532.52557126 80.5560842 533.29185486 83.14096069 C538.82950251 101.81637213 544.41152382 120.47848335 549.99445724 139.14039612 C552.4763676 147.43707945 554.9571961 155.73408629 557.4375 164.03125 C557.84820645 165.40514767 557.84820645 165.40514767 558.26721001 166.80680084 C564.30032221 186.99084385 570.30778193 207.18249535 576.3125 227.375 C586.54390325 261.78085693 596.81559716 296.17458451 607.1054163 330.56301498 C607.98566162 333.50487196 608.86577483 336.44676844 609.74586487 339.38867188 C610.87544125 343.16453781 612.00559195 346.94023118 613.13609314 350.71582031 C615.85951656 359.81518754 618.57051928 368.91801289 621.25878906 378.02783203 C621.77573055 379.77703409 622.29270767 381.52622562 622.8097229 383.27540588 C623.7750408 386.54156525 624.7361722 389.80891672 625.69491577 393.07701111 C626.121486 394.52152059 626.54820408 395.96598643 626.97509766 397.41040039 C627.34398102 398.66526749 627.71286438 399.92013458 628.09292603 401.21302795 C628.72754113 403.87872365 628.72754113 403.87872365 630 405 C649.18690244 342.50939082 649.18690244 342.50939082 668.3125 280 C668.53362709 279.27600006 668.75475418 278.55200012 668.98258209 277.80606079 C670.98992567 271.23355624 672.9969591 264.660957 675.00366211 258.08825684 C678.16127327 247.74593305 681.32035987 237.40406087 684.48046875 227.0625 C684.70792597 226.3181369 684.93538319 225.5737738 685.16973305 224.80685425 C686.3197909 221.04326802 687.46987246 217.27968903 688.6199646 213.51611328 C690.68438215 206.76044749 692.7485903 200.00471772 694.81281471 193.24899292 C695.95853461 189.49932601 697.10426799 185.74966321 698.25 182 C698.7083334 180.50000002 699.16666673 179.00000002 699.625 177.5 C700.54166667 174.5 701.45833333 171.5 702.375 168.5 C702.71531864 167.3862297 702.71531864 167.3862297 703.0625124 166.24995899 C703.52080408 164.75009559 703.97909609 163.25023228 704.43738842 161.75036907 C705.58386163 157.99827998 706.73032922 154.24618918 707.87678528 150.49409485 C709.93163848 143.76903921 711.98652892 137.04399496 714.04163456 130.31901646 C715.17752422 126.60200919 716.31338024 122.88499165 717.44921875 119.16796875 C717.78716241 118.06205415 717.78716241 118.06205415 718.13193321 116.93379784 C721.2418939 106.75627671 724.35029844 96.5782814 727.45755005 86.39993286 C729.19168741 80.71948717 730.92625917 75.03917415 732.6609211 69.35888863 C734.05620526 64.78978179 735.45093714 60.22050692 736.84520435 55.65108967 C737.71831775 52.79016796 738.59200632 49.9294221 739.46582603 47.06871605 C740.04023438 45.1876567 740.61399192 43.30639866 741.18769836 41.42512512 C745.41135058 27.60187104 749.71566425 13.80508185 754 0 C802.18 0 850.36 0 900 0 C896.62512803 12.37453056 896.62512803 12.37453056 895.14086914 16.95629883 C894.63620117 18.52057617 894.63620117 18.52057617 894.12133789 20.11645508 C893.76289795 21.21884521 893.40445801 22.32123535 893.03515625 23.45703125 C892.65020996 24.64796387 892.26526367 25.83889648 891.86865234 27.06591797 C891.03742726 29.63640829 890.20531794 32.2065908 889.37161255 34.77627563 C888.03423069 38.89846656 886.70033421 43.02178034 885.36694336 47.14526367 C883.73708077 52.18488007 882.10644097 57.2242436 880.4747858 62.26327991 C877.63355552 71.03820871 874.79890026 79.81524177 871.96875 88.59375 C871.76590897 89.2228981 871.56306793 89.8520462 871.3540802 90.5002594 C870.33274259 93.66819987 869.31149591 96.83616965 868.2902832 100.00415039 C866.21534985 106.44058766 864.13899608 112.87656675 862.0625 119.3125 C861.85508682 119.95536453 861.64767365 120.59822906 861.43397522 121.26057434 C854.28388734 143.42111275 847.12326948 165.5782512 839.96315002 187.73554993 C836.89045057 197.24416066 833.81812556 206.7528923 830.74609375 216.26171875 C830.52962692 216.93174423 830.3131601 217.60176971 830.09013367 218.292099 C828.56007635 223.02806188 827.03003597 227.76403023 825.5 232.5 C823.751314 237.91276427 822.00261891 243.3255256 820.25390625 248.73828125 C820.03745956 249.40824631 819.82101288 250.07821136 819.5980072 250.76847839 C816.52428107 260.28250837 813.45014437 269.79640561 810.37575912 279.31022263 C808.39624738 285.43595201 806.41683956 291.56171498 804.4375 297.6875 C804.22008148 298.36038055 804.00266296 299.03326111 803.77865601 299.72653198 C797.17988226 320.14912361 790.58754705 340.5737845 784 361 C777.19321465 382.10601466 770.38091527 403.21023946 763.5625 424.3125 C763.23659315 425.32115805 763.23659315 425.32115805 762.90410233 426.35019302 C759.38252903 437.24917195 755.8605617 448.14802353 752.33854675 459.04685974 C749.0380108 469.26034606 745.73761673 479.47387821 742.4375 489.6875 C742.2201482 490.3601804 742.0027964 491.03286079 741.77885818 491.72592545 C735.38592681 511.51152084 728.9987447 531.29896355 722.61661911 551.08804703 C715.67889971 572.59985716 708.73764841 594.11052238 701.79003906 615.61914062 C700.85339254 618.51884047 699.91687263 621.41858116 698.98046875 624.31835938 C697.88615504 627.70709625 696.79155773 631.09574139 695.69673538 634.48431396 C695.10358383 636.32037692 694.51069595 638.15652505 693.91781616 639.99267578 C693.5612796 641.09595215 693.20474304 642.19922852 692.83740234 643.3359375 C692.52910492 644.29032715 692.2208075 645.2447168 691.90316772 646.22802734 C690.94901708 649.15647509 689.97397175 652.07808475 689 655 C650.72 655 612.44 655 573 655 C570.03 645.079375 567.06 635.15875 564 624.9375 C556.15782104 598.77523829 548.2614466 572.6300048 540.3125 546.5 C539.81291538 544.85768688 539.31333246 543.21537323 538.81375122 541.57305908 C538.56467671 540.75425766 538.31560221 539.93545624 538.05897999 539.09184265 C536.786593 534.90892204 535.51433139 530.7259633 534.2421875 526.54296875 C533.98816351 525.70772423 533.73413952 524.87247971 533.47241783 524.01192474 C527.27101597 503.619101 521.10285237 483.21624603 514.9375 462.8125 C514.38883753 460.99684564 513.84017216 459.18119216 513.29150391 457.36553955 C511.11459327 450.16162848 508.93774626 442.95769819 506.76104736 435.75372314 C501.51911603 418.4056836 496.27059071 401.05964185 491.02047729 383.714077 C490.08311682 380.6171439 489.14581675 377.52019253 488.20851517 374.42324162 C483.82814346 359.95004729 479.4471898 345.47702917 475.06581974 331.00413704 C472.95311147 324.02523634 470.84056955 317.04628531 468.72812557 310.06730461 C467.47373011 305.92314246 466.21924034 301.77900892 464.96450806 297.63494873 C459.95683749 281.09580112 454.95078135 264.55629228 450 248 C447.8288707 253.62787762 445.9290226 259.274815 444.19799805 265.05175781 C443.93295471 265.92844116 443.66791138 266.80512451 443.39483643 267.70837402 C442.5145501 270.62251929 441.63811609 273.53780802 440.76171875 276.453125 C440.13163082 278.5421187 439.5013203 280.63104527 438.87080383 282.71990967 C437.16374119 288.37794295 435.46013123 294.03701051 433.75720215 299.69628906 C432.31841594 304.47615258 430.8775801 309.25539722 429.43675041 314.03464508 C418.97797423 348.72759069 408.56102286 383.43307839 398.15896606 418.14306641 C388.35480106 450.85764983 378.50272778 483.5575563 368.625 516.25 C359.02771934 548.0149185 349.44451058 579.78392621 339.91075897 611.56797791 C339.1323028 614.1631543 338.35367045 616.75827778 337.57501221 619.35339355 C336.37596776 623.349896 335.17750909 627.34657361 333.979599 631.34341621 C333.54738544 632.78539391 333.11504735 634.22733429 332.68257141 635.66923332 C332.09537937 637.62725258 331.50885558 639.5854722 330.92236328 641.54370117 C330.59696564 642.62963058 330.27156799 643.71556 329.93630981 644.83439636 C328.93593066 648.21661435 327.96895809 651.6086467 327 655 C288.72 655 250.44 655 211 655 C201.71728133 626.60580171 192.44955511 598.22386422 183.37117004 569.76669312 C177.72347788 552.07524153 171.98514852 534.4132387 166.25 516.75 C164.17558894 510.36073951 162.10131104 503.97143581 160.02734375 497.58203125 C159.64377842 496.40038926 159.64377842 496.40038926 159.25246429 495.19487572 C154.08743156 479.28166736 148.94527309 463.36113944 143.8125 447.4375 C143.40873138 446.18494415 143.00496277 444.93238831 142.58895874 443.64187622 C140.96003481 438.58861479 139.33113266 433.53534634 137.7023468 428.48204041 C133.2153167 414.56265262 128.71930903 400.64616723 124.22248077 386.72994232 C123.56323685 384.68978034 122.90401997 382.64960963 122.24481201 380.60943604 C119.16341735 371.0728897 116.08174716 361.53643242 113 352 C109.698535 341.78365315 106.39716095 331.56727693 103.09609985 321.35079956 C102.65687504 319.99144345 102.21764571 318.63208879 101.77841187 317.2727356 C96.85129845 302.02412385 91.9260778 286.77490569 87.0078125 271.5234375 C86.80352945 270.88996336 86.59924641 270.25648922 86.38877296 269.60381889 C85.35844547 266.40877119 84.32815603 263.21371121 83.29788208 260.01864624 C83.09403522 259.38648067 82.89018837 258.75431511 82.68016434 258.10299301 C82.26846709 256.82624259 81.85677224 255.54949139 81.4450798 254.27273941 C74.64281234 233.17769111 67.8252653 212.08761786 61 191 C53.15056695 166.74807171 45.31545146 142.49157523 37.49291992 118.23095703 C36.67498486 115.69433032 35.85703879 113.15770717 35.0390625 110.62109375 C34.83628252 109.99225029 34.63350254 109.36340683 34.42457771 108.71550751 C31.08597605 98.36261014 27.74319903 88.01106504 24.3984375 77.66015625 C24.16409311 76.93492327 23.92974873 76.20969028 23.68830299 75.46248055 C21.62861137 69.0883787 19.56878607 62.71432009 17.50827026 56.34048462 C17.08550975 55.03273535 16.66274974 53.72498592 16.23999023 52.41723633 C16.03326659 51.77778296 15.82654295 51.1383296 15.61355495 50.47949886 C14.20411608 46.11924092 12.79639613 41.75843027 11.38916016 37.39746094 C9.94448265 32.92079126 8.49609394 28.44536076 7.04300022 23.97141838 C6.39952976 21.98905609 5.75733926 20.00628428 5.11564636 18.02334595 C4.31284786 15.54309241 3.50785875 13.06354657 2.70039368 10.58480835 C2.34511093 9.48512726 1.98982819 8.38544617 1.6237793 7.25244141 C1.30918259 6.28319733 0.99458588 5.31395325 0.67045593 4.31533813 C0 2 0 2 0 0 Z " fill="#008FD4" transform="translate(596,191)"/>
<path d="M0 0 C142.23 0 284.46 0 431 0 C431 41.91 431 83.82 431 127 C337.28 127 243.56 127 147 127 C147 174.85 147 222.7 147 272 C235.77 272 324.54 272 416 272 C416 313.91 416 355.82 416 399 C327.23 399 238.46 399 147 399 C147 483.48 147 567.96 147 655 C98.49 655 49.98 655 0 655 C0 438.85 0 222.7 0 0 Z " fill="#008FD4" transform="translate(149,191)"/>
<path d="M0 0 C299.03342246 0 299.03342246 0 324 3.75 C325.12809082 3.91483887 326.25618164 4.07967773 327.41845703 4.24951172 C342.0764779 6.49194742 356.91778551 9.3059285 371 14 C371 61.19 371 108.38 371 157 C367.37 155.02 363.74 153.04 360 151 C293.25823662 119.06122902 219.90385576 129.55230194 147 129 C147 260.34 147 391.68 147 527 C229.68048626 529.60352233 229.68048626 529.60352233 318.6875 519.3125 C320.22374023 518.93121948 320.22374023 518.93121948 321.79101562 518.54223633 C338.60083933 514.20073811 353.90479133 507.4852526 369 499 C369.66 498.67 370.32 498.34 371 498 C371 545.19 371 592.38 371 641 C261.93319441 677.35560186 64.48525829 655 0 655 C0 438.85 0 222.7 0 0 Z " fill="#20BDC5" transform="translate(1516,191)"/>
<path d="M0 0 C64.47117997 0 72.49812721 0.79930628 119.96875 29.75 C127.09583903 34.0857639 134.29298838 38.29887934 141.5 42.5 C151.2039414 48.15694915 160.84763791 53.90167025 170.4375 59.75 C182.22955206 66.94077354 194.0899183 74.00653566 206 81 C211.61 84.3 217.22 87.6 223 91 C223.33 70.21 223.66 49.42 224 28 C235.80256925 33.90128463 245.45128886 41.9682573 255 51 C255.87140625 51.80695313 256.7428125 52.61390625 257.640625 53.4453125 C281.04535633 75.84698391 296.46910577 106.70080538 304 138 C304 138.66 304 139.32 304 140 C299.96378111 138.51437573 296.39786923 136.58486042 292.6953125 134.40234375 C292.09427704 134.04918594 291.49324158 133.69602814 290.87399292 133.33216858 C288.95573083 132.20385474 287.04037822 131.07070089 285.125 129.9375 C283.87778349 129.20347125 282.63038895 128.46974493 281.3828125 127.73632812 C262.5098978 116.62417157 243.77966442 105.26779865 225 94 C225 162.97 225 231.94 225 303 C247.00040191 290.12263901 247.00040191 290.12263901 268.95379639 277.16564941 C270.2397673 276.40241957 271.52612951 275.63984877 272.81280518 274.87780762 C281.22092711 269.89676555 289.61108975 264.89222408 297.76489258 259.50024414 C299.14081265 258.60899338 300.5655088 257.79354833 302 257 C302.66 257.33 303.32 257.66 304 258 C295.29439899 288.97356726 283.02313265 317.18478039 260.41650391 340.53222656 C258.99524487 342.00492724 257.59721558 343.49742498 256.19921875 344.9921875 C247.43613108 354.20650322 237.24247966 362.94007902 226 369 C225.34 369 224.68 369 224 369 C223.67 348.21 223.34 327.42 223 306 C204.18153453 317.11491436 204.18153453 317.11491436 185.375 328.25 C184.70777924 328.64564148 184.04055847 329.04128296 183.3531189 329.44891357 C173.22447154 335.458031 163.14389922 341.54164459 153.09051514 347.67565918 C144.28207686 353.04671144 135.41227833 358.303274 126.5 363.5 C111.00909864 372.53319871 95.62326446 381.74914588 80.40625 391.23779297 C79.81537598 391.6050499 79.22450195 391.97230682 78.61572266 392.35069275 C76.96888026 393.37519098 75.32421651 394.4031889 73.6796875 395.43139648 C52.47128657 407.84611733 24.57481564 398 0 398 C0 266.66 0 135.32 0 0 Z " fill="#FECA05" transform="translate(1663,320)"/>
<path d="M0 0 C3.59625736 1.35560863 6.86262467 2.96128802 10.19140625 4.87890625 C11.70951904 5.75240723 11.70951904 5.75240723 13.25830078 6.64355469 C14.34868652 7.27680664 15.43907227 7.91005859 16.5625 8.5625 C17.13111755 8.89157349 17.69973511 9.22064697 18.2855835 9.55969238 C28.31077615 15.363733 38.22551761 21.3414904 48.11157227 27.37915039 C57.0324651 32.82452465 66.00483254 38.1783372 75 43.5 C85.10246587 49.47757366 95.16736609 55.5104394 105.1875 61.625 C115.96048387 68.1979076 126.81648304 74.61808661 137.71435547 80.98144531 C145.21727416 85.36309648 152.69183824 89.78773233 160.1328125 94.27392578 C165.19541207 97.32354907 170.27036239 100.35139349 175.35546875 103.36328125 C176.01140015 103.75182281 176.66733154 104.14036438 177.34313965 104.54067993 C178.70334274 105.34634405 180.06355198 106.15199777 181.42376709 106.9576416 C192.96289926 113.79285673 204.46032696 120.68967932 215.90893555 127.67538452 C224.71755989 133.04651597 233.58750247 138.30325185 242.5 143.5 C251.99354693 149.03554964 261.43121115 154.65121201 270.8125 160.375 C280.75410544 166.43927404 290.73251239 172.43685022 300.75 178.375 C301.4138269 178.76857697 302.07765381 179.16215393 302.76159668 179.56765747 C307.50658827 182.38036947 312.25320486 185.19033319 317 188 C325.8181452 193.22020308 334.63398691 198.44413278 343.43676758 203.69021606 C346.44433722 205.48198547 349.45406892 207.26976555 352.47119141 209.04541016 C355.61179672 210.89536849 358.74415353 212.75858851 361.875 214.625 C362.76517822 215.14425049 363.65535645 215.66350098 364.57250977 216.19848633 C379.63546835 225.24377634 389.23163685 237.17945769 393.58203125 254.2890625 C396.1709202 271.08054781 392.7333637 286.03473904 383 300 C373.09219881 312.92422778 355.28476208 320.21090774 341.4699707 328.26733398 C332.92420894 333.25563287 324.44394812 338.34148333 316 343.5 C305.95669916 349.63417986 295.84434787 355.63600296 285.67724609 361.5625 C276.72696696 366.78249662 267.84255179 372.09966525 259 377.5 C248.95646341 383.63380175 238.84435646 389.63599795 228.67724609 395.5625 C219.72696696 400.78249662 210.84255179 406.09966525 202 411.5 C191.95646341 417.63380175 181.84435646 423.63599795 171.67724609 429.5625 C162.72696696 434.78249662 153.84255179 440.09966525 145 445.5 C134.95646341 451.63380175 124.84435646 457.63599795 114.67724609 463.5625 C105.72696696 468.78249662 96.84255179 474.09966525 88 479.5 C77.96044545 485.63136983 67.85242381 491.63131906 57.68933105 497.55545044 C48.48528309 502.92344241 39.3485588 508.39270359 30.25 513.9375 C29.07769599 514.6509763 27.90533363 515.36435674 26.73291016 516.07763672 C20.44796059 519.90116681 20.44796059 519.90116681 14.16503906 523.72802734 C11.73996804 525.20209896 9.30889757 526.66556447 6.875 528.125 C6.18825195 528.54515381 5.50150391 528.96530762 4.79394531 529.39819336 C3.23159307 530.32811622 1.62011715 531.17482033 0 532 C-0.66 531.67 -1.32 531.34 -2 531 C-1.50298584 530.64397705 -1.00597168 530.2879541 -0.49389648 529.92114258 C15.47255839 518.43888354 29.92920295 506.22581589 43.875 492.375 C44.60523376 491.65293869 44.60523376 491.65293869 45.35021973 490.91629028 C52.02840579 484.293864 58.17464827 477.38730763 64 470 C64.47630859 469.40864258 64.95261719 468.81728516 65.44335938 468.20800781 C120.78759417 399.41017447 140.82664567 310.39043127 131.75 223.6875 C124.68615182 161.71547696 100.4036676 102.01660499 59 55 C58.38769531 54.2884375 57.77539062 53.576875 57.14453125 52.84375 C55.44874843 50.878092 53.72835418 48.93707492 52 47 C51.2265625 46.12214844 50.453125 45.24429688 49.65625 44.33984375 C37.20280566 30.4396022 23.39655104 18.49100145 8.45703125 7.35546875 C7.61531372 6.72765503 7.61531372 6.72765503 6.7565918 6.0871582 C5.21973628 4.94538241 3.6764747 3.81224384 2.1328125 2.6796875 C1.42898438 2.12539062 0.72515625 1.57109375 0 1 C0 0.67 0 0.34 0 0 Z " fill="#EB008C" transform="translate(1990,253)"/>
<path d="M0 0 C35.4655393 -0.04592706 70.93107333 -0.08109474 106.39663633 -0.10213066 C110.59783898 -0.10463163 114.79904157 -0.10722031 119.00024414 -0.10986328 C120.25465062 -0.11065021 120.25465062 -0.11065021 121.53439864 -0.11145304 C135.01827479 -0.12012039 148.50213363 -0.13586979 161.98599956 -0.15430559 C175.85477105 -0.1731074 189.72353357 -0.18413828 203.59231728 -0.18817699 C212.12795612 -0.1909009 220.66354598 -0.19945619 229.19916972 -0.21583293 C235.07789971 -0.22652724 240.95660495 -0.229573 246.83534393 -0.22700275 C250.21081004 -0.22574046 253.58612432 -0.22861258 256.961586 -0.23841095 C279.03991108 -0.29927915 301.13453724 0.46578993 323 3.75 C324.12809082 3.91483887 325.25618164 4.07967773 326.41845703 4.24951172 C341.0764779 6.49194742 355.91778551 9.3059285 370 14 C370 61.19 370 108.38 370 157 C366.37 155.02 362.74 153.04 359 151 C336.67039113 140.31433292 313.58252982 133.87286377 289 131 C288.23764038 130.9084967 287.47528076 130.81699341 286.68981934 130.72271729 C279.06839628 129.90644764 271.59700593 130.05263349 263.9453125 130.28125 C208.7011815 131.48265434 208.7011815 131.48265434 188.01367188 114.3828125 C183.23355115 110.60332625 178.02478296 107.61706806 172.77380371 104.54501343 C170.43241977 103.16561748 168.11488475 101.74880066 165.79693604 100.33049011 C157.92412743 95.51467339 149.969482 90.84100097 142 86.1875 C141.38460358 85.82815369 140.76920715 85.46880737 140.13516235 85.09857178 C139.52506317 84.74232727 138.91496399 84.38608276 138.28637695 84.01904297 C130.78325336 79.63716294 123.30841244 75.2124188 115.8671875 70.72607422 C110.80458793 67.67645093 105.72963761 64.64860651 100.64453125 61.63671875 C99.98859985 61.24817719 99.33266846 60.85963562 98.65686035 60.45932007 C97.29665726 59.65365595 95.93644802 58.84800223 94.57623291 58.0423584 C83.040098 51.20891869 71.54430934 44.3159634 60.10012817 37.32965088 C51.10655669 31.84269494 42.04088878 26.48994484 32.9375 21.1875 C24.44828913 16.24008746 16.00308574 11.23591683 7.6875 6 C6.8927124 5.50137451 6.0979248 5.00274902 5.27905273 4.48901367 C3.49980043 3.35617235 1.74628096 2.18303467 0 1 C0 0.67 0 0.34 0 0 Z " fill="#008FD3" transform="translate(1517,191)"/>
<path d="M0 0 C0.33 0 0.66 0 1 0 C1 47.19 1 94.38 1 143 C-20.90816576 150.30272192 -44.04130414 153.83836691 -67 156 C-67.81407696 156.0832937 -68.62815392 156.16658741 -69.46689987 156.25240517 C-81.94656609 157.34188263 -94.45704954 157.13551774 -106.97329974 157.11606562 C-110.49728556 157.11170648 -114.02126981 157.11321138 -117.54525757 157.1139679 C-123.63572507 157.1144897 -129.72618178 157.11137899 -135.81664658 157.10573006 C-144.62220109 157.09756822 -153.42775044 157.09499506 -162.23330833 157.09374207 C-176.52321762 157.09155888 -190.81312117 157.08491873 -205.10302734 157.07543945 C-218.97607393 157.06624633 -232.84911895 157.05917481 -246.72216797 157.05493164 C-247.57874457 157.05466892 -248.43532116 157.05440619 -249.31785463 157.05413551 C-253.61547826 157.05283038 -257.9131019 157.05156669 -262.21072555 157.05032361 C-297.80715445 157.03997383 -333.4035767 157.02237554 -369 157 C-366.22612437 154.09715511 -363.30419283 152.2605816 -359.83203125 150.21875 C-359.2133165 149.85312958 -358.59460175 149.48750916 -357.95713806 149.11080933 C-355.91132827 147.90307815 -353.86188572 146.70165141 -351.8125 145.5 C-350.37047677 144.64974542 -348.92874962 143.79898852 -347.48730469 142.94775391 C-344.48769249 141.17698826 -341.48681427 139.40839931 -338.48486328 137.64160156 C-331.56454834 133.56740531 -324.65639492 129.47273505 -317.75 125.375 C-317.08718018 124.98201721 -316.42436035 124.58903442 -315.74145508 124.18414307 C-305.8153992 118.29744551 -295.93917157 112.33331073 -286.08776855 106.32269287 C-276.67831043 100.58514518 -267.19376631 94.98612364 -257.67340088 89.43493652 C-248.79008221 84.25257981 -239.96670732 78.98174916 -231.1875 73.625 C-223.87301477 69.16230324 -216.54923955 64.71774036 -209.18359375 60.33984375 C-208.52525543 59.94731415 -207.86691711 59.55478455 -207.18862915 59.15036011 C-203.8039801 57.1362456 -200.40800859 55.1469008 -196.98632812 53.19628906 C-190.46943248 49.45313537 -184.41604912 45.67550631 -178.66015625 40.83203125 C-156.41125019 22.890783 -128.91753207 26.29504239 -101.85943222 26.92767525 C-84.76622321 27.30657617 -67.90918658 25.51607255 -51.3125 21.3125 C-49.77625977 20.93121948 -49.77625977 20.93121948 -48.20898438 20.54223633 C-22.30217172 13.93130805 -22.30217172 13.93130805 0 0 Z " fill="#008FD3" transform="translate(1886,689)"/>
<path d="M0 0 C6.97410055 3.80405484 13.86969857 7.62714979 20.6875 11.6875 C22.05890137 12.50130127 22.05890137 12.50130127 23.45800781 13.33154297 C25.49964943 14.54332796 27.54080253 15.75593626 29.58154297 16.96923828 C32.67220999 18.80527372 35.76483842 20.63793252 38.85839844 22.46908569 C64.4931713 37.64321491 64.4931713 37.64321491 76.35986328 44.94775391 C86.24694744 51.01771654 96.26037955 56.87857717 106.24755859 62.78173828 C123.41583282 72.9299808 140.57336805 83.09407441 157.625 93.4375 C158.21481659 93.79480194 158.80463318 94.15210388 159.412323 94.52023315 C161.08053681 95.53142592 162.74732853 96.54496363 164.4140625 97.55859375 C165.82099365 98.41408813 165.82099365 98.41408813 167.25634766 99.28686523 C170.21378557 101.13348757 173.10803992 103.05276108 176 105 C172.91202746 108.38442168 169.52800229 110.67708176 165.59375 112.94921875 C164.65146294 113.50372963 164.65146294 113.50372963 163.69013977 114.06944275 C162.33667736 114.8651728 160.98162539 115.65820416 159.62515259 116.4487915 C155.98650398 118.56968625 152.35934888 120.71010595 148.73046875 122.84765625 C147.99221359 123.28176819 147.25395844 123.71588013 146.49333191 124.16314697 C139.55653596 128.24715714 132.68067504 132.426961 125.8125 136.625 C115.83248298 142.71741512 105.77946856 148.67274899 95.67843628 154.56204224 C86.6883138 159.80621752 77.76027224 165.1426559 68.875 170.5625 C56.46910045 178.12859386 43.98742958 185.56005142 31.47314453 192.94580078 C27.75695684 195.14153075 24.04830954 197.34985559 20.33984375 199.55859375 C18.46030104 200.67689192 16.58064892 201.79500597 14.70095825 202.91305542 C13.48965139 203.63411431 12.27877021 204.35588879 11.06832886 205.07839966 C9.39828742 206.07506682 7.72653191 207.06886017 6.0546875 208.0625 C4.62358643 208.91521484 4.62358643 208.91521484 3.16357422 209.78515625 C1 211 1 211 0 211 C0 141.37 0 71.74 0 0 Z " fill="#20BDC5" transform="translate(1887,413)"/>
<path d="M0 0 C15.18830018 -0.68518647 29.45390232 4.04756245 40.953125 13.90625 C50.75791013 23.33012981 56.80413666 35.82787132 57.28125 49.4765625 C57.56490767 66.78327117 54.59395179 81.06279054 42.3359375 94.08984375 C28.50443619 106.74877834 12.7125803 108.93479002 -5.20800781 108.33544922 C-15.13821214 107.67974843 -23.88352187 103.91032292 -31.921875 98.15625 C-32.55609375 97.70507812 -33.1903125 97.25390625 -33.84375 96.7890625 C-43.39170038 89.31124295 -49.00754998 78.00091622 -51.5390625 66.3046875 C-53.61906126 49.19775892 -51.48831549 33.54477322 -40.91796875 19.4921875 C-31.59432142 8.45058726 -19.94225283 2.5056694 -5.671875 0.40625 C-3.78060473 0.28016532 -1.88923496 0.15359634 0 0 Z M-19.921875 33.15625 C-25.74791844 41.9415536 -27.96067386 50.6690582 -26.5078125 61.140625 C-24.43437546 70.18380822 -19.46598338 76.87537414 -11.921875 82.15625 C-4.34197134 86.08155726 4.50703655 86.66020131 12.76953125 84.4296875 C21.79493549 80.67292025 25.67644642 75.74133138 29.87890625 67.09375 C33.54382932 58.11647916 32.74910327 48.99997037 29.078125 40.15625 C24.92196309 31.89721031 19.13285705 27.14203759 10.578125 23.78125 C-0.53163292 21.79736466 -12.48314188 23.93667304 -19.921875 33.15625 Z " fill="#662D91" transform="translate(309.921875,958.84375)"/>
<path d="M0 0 C59.2481203 0 59.2481203 0 70 10 C76.78437004 16.93856026 79.89320854 25.1135959 80.25 34.6875 C80.13754453 44.11970262 77.03486784 51.64658996 70.625 58.5625 C67.82985044 61.15799602 64.93780573 63.56801481 62 66 C63.97825189 69.35470696 65.9576714 72.70872333 67.9375 76.0625 C68.52490967 77.05789795 69.11231934 78.0532959 69.7175293 79.07885742 C73.59356533 85.64005138 77.49334166 92.18595794 81.45874023 98.69360352 C84 102.8920756 84 102.8920756 84 104 C74.43 104 64.86 104 55 104 C48.3125 92 48.3125 92 46.2355957 88.265625 C45.0642063 86.16897207 43.87722717 84.0809841 42.67822266 82 C41 79 41 79 39.84912109 76.4375 C38.74631059 73.91388386 38.74631059 73.91388386 36 71 C32.04 70.67 28.08 70.34 24 70 C24 81.22 24 92.44 24 104 C16.08 104 8.16 104 0 104 C0 69.68 0 35.36 0 0 Z M24 23 C24 30.92 24 38.84 24 47 C26.97 47.0825 29.94 47.165 33 47.25 C33.91910156 47.28641602 34.83820312 47.32283203 35.78515625 47.36035156 C41.6347114 47.43811152 46.17682293 46.43944856 51 43 C53.53477267 39.54349182 54.01261188 37.71887712 53.9375 33.4375 C52.75003955 29.08347836 51.06611197 26.27294165 47.17480469 23.87548828 C44.63151812 22.85166412 42.75174994 22.77132012 40.015625 22.8046875 C39.17290039 22.80968262 38.33017578 22.81467773 37.46191406 22.81982422 C36.40198242 22.83803223 35.34205078 22.85624023 34.25 22.875 C30.8675 22.91625 27.485 22.9575 24 23 Z " fill="#662D91" transform="translate(678,961)"/>
<path d="M0 0 C6.27 0 12.54 0 19 0 C27.40523503 15.14134537 35.36189014 30.45771536 43 46 C46.80390997 42.29327021 50.31180317 38.42125244 53.75 34.375 C54.27658203 33.75818359 54.80316406 33.14136719 55.34570312 32.50585938 C59.16861695 28.01405176 62.9103994 23.46070221 66.625 18.87890625 C70.05081276 14.72623518 73.57082028 10.65570421 77.10351562 6.59375 C79.83979178 3.49768353 79.83979178 3.49768353 82 0 C88.6 0 95.2 0 102 0 C101.363631 11.38897637 99.57487119 22.43664342 97.65625 33.66796875 C97.32335729 35.63992957 96.9908857 37.61196152 96.65881348 39.58406067 C95.96641765 43.6885785 95.27013945 47.79241148 94.57080078 51.89575195 C93.67346825 57.16172827 92.78421776 62.4290302 91.89759064 67.69681835 C91.21384705 71.75573037 90.52681293 75.81407963 89.83866882 79.8722477 C89.50932484 81.81584303 89.18080004 83.75957736 88.85310364 85.70345116 C88.39682387 88.40596875 87.93634087 91.10773543 87.47460938 93.80932617 C87.33951462 94.61392776 87.20441986 95.41852936 87.06523132 96.24751282 C86.11444609 101.77110783 86.11444609 101.77110783 85 104 C79.06 104 73.12 104 67 104 C68.64242863 89.46179935 71.12543264 75.09979579 73.625 60.6875 C74.2552625 57.04568933 74.8844381 53.40370453 75.5105896 49.76118469 C75.89760008 47.51041848 76.28701505 45.26006407 76.67910767 43.01017761 C76.93970474 41.49633232 76.93970474 41.49633232 77.20556641 39.9519043 C77.35941803 39.0652861 77.51326965 38.17866791 77.67178345 37.2651825 C78.0716994 34.88664045 78.0716994 34.88664045 78 32 C77.47792969 32.64324219 76.95585937 33.28648437 76.41796875 33.94921875 C72.19802155 39.1299245 67.94518308 44.27775557 63.625 49.375 C63.16730225 49.91503662 62.70960449 50.45507324 62.23803711 51.01147461 C59.86322003 53.81055816 57.48372925 56.60560766 55.1015625 59.3984375 C54.15075935 60.51538474 53.20023443 61.63256889 52.25 62.75 C51.79262451 63.2869751 51.33524902 63.8239502 50.86401367 64.37719727 C47.53720648 68.30569321 44.38625379 72.33950279 41.33984375 76.48828125 C40.89769531 76.98714844 40.45554687 77.48601562 40 78 C39.34 78 38.68 78 38 78 C37.6282666 77.28158936 37.2565332 76.56317871 36.87353516 75.82299805 C29.29904379 61.18870725 21.7010995 46.56820897 14 32 C12.04917643 39.17813765 10.84902537 46.42860785 9.65234375 53.765625 C9.43372923 55.08987856 9.21477492 56.41407607 8.99549866 57.73822021 C8.42266479 61.20165403 7.85346091 64.66567326 7.28533936 68.12988281 C6.37351367 73.68755555 5.45720212 79.2444861 4.53882027 84.8010788 C4.21986935 86.7351505 3.90324332 88.66960515 3.58665466 90.60406494 C3.29613976 92.36674713 3.29613976 92.36674713 2.99975586 94.16503906 C2.745662 95.71436127 2.745662 95.71436127 2.48643494 97.29498291 C2.0812619 99.54811052 1.55522911 101.77908355 1 104 C-4.94 104 -10.88 104 -17 104 C-16.31480815 92.93231212 -14.49514978 82.13160311 -12.65625 71.2109375 C-12.32343938 69.21511267 -11.99096619 67.21923155 -11.65881348 65.22329712 C-10.96587193 61.06582624 -10.26961177 56.90892965 -9.57080078 52.75244141 C-8.67410704 47.41793775 -7.78470226 42.08224977 -6.89759064 36.74614525 C-6.21378331 32.63663501 -5.5267528 28.52766897 -4.83866882 24.41887283 C-4.50926668 22.45016567 -4.18074198 20.48131149 -3.85310364 18.51231003 C-3.39680366 15.77377165 -2.93631191 13.03597182 -2.47460938 10.29833984 C-2.33951462 9.48281647 -2.20441986 8.66729309 -2.06523132 7.82705688 C-1.11438029 2.22876058 -1.11438029 2.22876058 0 0 Z " fill="#4D4D4D" transform="translate(2155,961)"/>
<path d="M0 0 C1.12591553 0.00523682 2.25183105 0.01047363 3.41186523 0.01586914 C4.62680664 0.0190918 5.84174805 0.02231445 7.09350586 0.02563477 C8.37290039 0.03401367 9.65229492 0.04239258 10.97045898 0.05102539 C12.2537207 0.05553711 13.53698242 0.06004883 14.85913086 0.06469727 C18.04211921 0.07652994 21.22501661 0.09301471 24.40795898 0.11352539 C24.99359619 1.66064209 24.99359619 1.66064209 25.59106445 3.23901367 C34.35339063 26.37295105 43.233557 49.45689845 52.2902832 72.47729492 C56.42327316 82.98974872 60.47301591 93.525177 64.40795898 104.11352539 C55.49795898 104.11352539 46.58795898 104.11352539 37.40795898 104.11352539 C35.09795898 98.17352539 32.78795898 92.23352539 30.40795898 86.11352539 C10.60795898 85.61852539 10.60795898 85.61852539 -9.59204102 85.11352539 C-10.58204102 88.41352539 -11.57204102 91.71352539 -12.59204102 95.11352539 C-13.91204102 98.08352539 -15.23204102 101.05352539 -16.59204102 104.11352539 C-25.17204102 104.11352539 -33.75204102 104.11352539 -42.59204102 104.11352539 C-41.90110223 100.65883145 -41.28160825 98.0139942 -40.03588867 94.82543945 C-39.71622131 94.00122498 -39.39655396 93.1770105 -39.06719971 92.32781982 C-38.54195709 90.99197845 -38.54195709 90.99197845 -38.00610352 89.62915039 C-37.6369281 88.68042053 -37.26775269 87.73169067 -36.88739014 86.75421143 C-35.66777942 83.62247075 -34.44246392 80.49299588 -33.21704102 77.36352539 C-32.36849908 75.18855018 -31.52036008 73.01341774 -30.67260742 70.83813477 C-29.3484997 67.44085957 -28.02401863 64.04373397 -26.69796753 60.6472168 C-23.49422901 52.43953494 -20.31131155 44.22399286 -17.13891602 36.00415039 C-16.26314018 33.73688312 -15.38732698 31.46963028 -14.51147461 29.20239258 C-13.24132342 25.91432282 -11.97184759 22.62600161 -10.70465088 19.33679199 C-9.53151591 16.29267743 -8.35512246 13.2498415 -7.17797852 10.20727539 C-6.82781677 9.29608948 -6.47765503 8.38490356 -6.11688232 7.44610596 C-5.79721497 6.62156921 -5.47754761 5.79703247 -5.14819336 4.94750977 C-4.8701889 4.22704468 -4.59218445 3.50657959 -4.30575562 2.76428223 C-3.16612451 0.12841932 -3.01428061 0.13201851 0 0 Z M9.40795898 33.11352539 C7.97753858 36.90147645 6.55356108 40.69177987 5.13549805 44.484375 C4.65223633 45.77409997 4.1672223 47.06316977 3.68041992 48.3515625 C2.98081984 50.20407497 2.28804666 52.05916108 1.59545898 53.91430664 C1.17651367 55.02974854 0.75756836 56.14519043 0.32592773 57.29443359 C-0.74685309 60.09482421 -0.74685309 60.09482421 -0.59204102 63.11352539 C6.99795898 63.11352539 14.58795898 63.11352539 22.40795898 63.11352539 C17.24248394 47.98801141 17.24248394 47.98801141 11.40795898 33.11352539 C10.74795898 33.11352539 10.08795898 33.11352539 9.40795898 33.11352539 Z " fill="#662D91" transform="translate(950.592041015625,960.886474609375)"/>
<path d="M0 0 C1.12591553 0.00523682 2.25183105 0.01047363 3.41186523 0.01586914 C4.62680664 0.0190918 5.84174805 0.02231445 7.09350586 0.02563477 C8.37290039 0.03401367 9.65229492 0.04239258 10.97045898 0.05102539 C12.2537207 0.05553711 13.53698242 0.06004883 14.85913086 0.06469727 C18.04211921 0.07652994 21.22501661 0.09301471 24.40795898 0.11352539 C24.99359619 1.66064209 24.99359619 1.66064209 25.59106445 3.23901367 C34.35339063 26.37295105 43.233557 49.45689845 52.2902832 72.47729492 C56.42327316 82.98974872 60.47301591 93.525177 64.40795898 104.11352539 C55.49795898 104.11352539 46.58795898 104.11352539 37.40795898 104.11352539 C35.09795898 98.17352539 32.78795898 92.23352539 30.40795898 86.11352539 C10.60795898 85.61852539 10.60795898 85.61852539 -9.59204102 85.11352539 C-10.58204102 88.41352539 -11.57204102 91.71352539 -12.59204102 95.11352539 C-13.91204102 98.08352539 -15.23204102 101.05352539 -16.59204102 104.11352539 C-25.17204102 104.11352539 -33.75204102 104.11352539 -42.59204102 104.11352539 C-41.90110223 100.65883145 -41.28160825 98.0139942 -40.03588867 94.82543945 C-39.71622131 94.00122498 -39.39655396 93.1770105 -39.06719971 92.32781982 C-38.54195709 90.99197845 -38.54195709 90.99197845 -38.00610352 89.62915039 C-37.6369281 88.68042053 -37.26775269 87.73169067 -36.88739014 86.75421143 C-35.66777942 83.62247075 -34.44246392 80.49299588 -33.21704102 77.36352539 C-32.36849908 75.18855018 -31.52036008 73.01341774 -30.67260742 70.83813477 C-29.3484997 67.44085957 -28.02401863 64.04373397 -26.69796753 60.6472168 C-23.49422901 52.43953494 -20.31131155 44.22399286 -17.13891602 36.00415039 C-16.26314018 33.73688312 -15.38732698 31.46963028 -14.51147461 29.20239258 C-13.24132342 25.91432282 -11.97184759 22.62600161 -10.70465088 19.33679199 C-9.53151591 16.29267743 -8.35512246 13.2498415 -7.17797852 10.20727539 C-6.82781677 9.29608948 -6.47765503 8.38490356 -6.11688232 7.44610596 C-5.79721497 6.62156921 -5.47754761 5.79703247 -5.14819336 4.94750977 C-4.8701889 4.22704468 -4.59218445 3.50657959 -4.30575562 2.76428223 C-3.16612451 0.12841932 -3.01428061 0.13201851 0 0 Z M9.40795898 33.11352539 C7.97753858 36.90147645 6.55356108 40.69177987 5.13549805 44.484375 C4.65223633 45.77409997 4.1672223 47.06316977 3.68041992 48.3515625 C2.98081984 50.20407497 2.28804666 52.05916108 1.59545898 53.91430664 C1.17651367 55.02974854 0.75756836 56.14519043 0.32592773 57.29443359 C-0.74685309 60.09482421 -0.74685309 60.09482421 -0.59204102 63.11352539 C6.99795898 63.11352539 14.58795898 63.11352539 22.40795898 63.11352539 C17.24248394 47.98801141 17.24248394 47.98801141 11.40795898 33.11352539 C10.74795898 33.11352539 10.08795898 33.11352539 9.40795898 33.11352539 Z " fill="#662D91" transform="translate(574.592041015625,960.886474609375)"/>
<path d="M0 0 C8.08213216 6.36981603 14.23285615 13.28236212 18.3046875 22.81640625 C18.3046875 23.47640625 18.3046875 24.13640625 18.3046875 24.81640625 C14.86964978 25.99041213 11.43128036 27.15433834 7.9921875 28.31640625 C7.01572266 28.65027344 6.03925781 28.98414063 5.03320312 29.328125 C4.09541016 29.64394531 3.15761719 29.95976563 2.19140625 30.28515625 C1.32733154 30.57841797 0.46325684 30.87167969 -0.42700195 31.17382812 C-2.6953125 31.81640625 -2.6953125 31.81640625 -5.6953125 31.81640625 C-7.0546875 30.0234375 -7.0546875 30.0234375 -8.4453125 27.62890625 C-12.09341605 21.90003253 -15.76680259 18.95527122 -22.0703125 16.50390625 C-30.53206933 14.8990903 -37.02109924 15.70281215 -44.6953125 19.81640625 C-51.14097508 24.97293631 -55.19817818 31.92053651 -56.46875 40.0546875 C-57.31938239 50.42360296 -55.7084494 59.17252195 -49.6953125 67.81640625 C-43.86795291 73.67791053 -36.99785741 76.68249424 -28.6953125 76.81640625 C-20.02001355 75.89006077 -14.55486221 72.17716397 -8.9921875 65.59765625 C-7.64647704 63.74933104 -6.65774488 61.88654383 -5.6953125 59.81640625 C2.56687343 61.41086318 10.36757736 64.07658694 18.3046875 66.81640625 C16.86007453 76.16487868 10.50300158 83.98516694 3.3046875 89.81640625 C-11.32911305 100.0088995 -27.1259428 102.12374847 -44.5546875 99.16015625 C-58.3600892 95.32899214 -69.28160108 86.87601448 -76.34375 74.5078125 C-83.53663885 60.18440089 -85.36736698 43.06532658 -80.734375 27.5859375 C-75.45807859 13.52242563 -67.79713653 3.35868543 -54.18359375 -3.4375 C-37.11082027 -10.70079924 -15.77710024 -10.59774915 0 0 Z " fill="#662D91" transform="translate(888.6953125,967.18359375)"/>
<path d="M0 0 C8.08213216 6.36981603 14.23285615 13.28236212 18.3046875 22.81640625 C18.3046875 23.47640625 18.3046875 24.13640625 18.3046875 24.81640625 C14.86964978 25.99041213 11.43128036 27.15433834 7.9921875 28.31640625 C7.01572266 28.65027344 6.03925781 28.98414063 5.03320312 29.328125 C4.09541016 29.64394531 3.15761719 29.95976563 2.19140625 30.28515625 C1.32733154 30.57841797 0.46325684 30.87167969 -0.42700195 31.17382812 C-2.6953125 31.81640625 -2.6953125 31.81640625 -5.6953125 31.81640625 C-7.0546875 30.0234375 -7.0546875 30.0234375 -8.4453125 27.62890625 C-12.09341605 21.90003253 -15.76680259 18.95527122 -22.0703125 16.50390625 C-30.53206933 14.8990903 -37.02109924 15.70281215 -44.6953125 19.81640625 C-51.14097508 24.97293631 -55.19817818 31.92053651 -56.46875 40.0546875 C-57.31938239 50.42360296 -55.7084494 59.17252195 -49.6953125 67.81640625 C-43.86795291 73.67791053 -36.99785741 76.68249424 -28.6953125 76.81640625 C-20.02001355 75.89006077 -14.55486221 72.17716397 -8.9921875 65.59765625 C-7.64647704 63.74933104 -6.65774488 61.88654383 -5.6953125 59.81640625 C2.56687343 61.41086318 10.36757736 64.07658694 18.3046875 66.81640625 C16.86007453 76.16487868 10.50300158 83.98516694 3.3046875 89.81640625 C-11.32911305 100.0088995 -27.1259428 102.12374847 -44.5546875 99.16015625 C-58.3600892 95.32899214 -69.28160108 86.87601448 -76.34375 74.5078125 C-83.53663885 60.18440089 -85.36736698 43.06532658 -80.734375 27.5859375 C-75.45807859 13.52242563 -67.79713653 3.35868543 -54.18359375 -3.4375 C-37.11082027 -10.70079924 -15.77710024 -10.59774915 0 0 Z " fill="#662D91" transform="translate(236.6953125,967.18359375)"/>
<path d="M0 0 C4.71960978 4.13188479 9.73560003 8.87599493 12.0703125 14.8125 C12.0703125 16.1325 12.0703125 17.4525 12.0703125 18.8125 C8.84694748 19.85230962 5.61591475 20.86591411 2.3828125 21.875 C1.47080078 22.16955078 0.55878906 22.46410156 -0.38085938 22.76757812 C-1.26708984 23.04150391 -2.15332031 23.31542969 -3.06640625 23.59765625 C-3.87811279 23.85426025 -4.68981934 24.11086426 -5.52612305 24.37524414 C-8.31806276 24.88315313 -10.21815011 24.60821789 -12.9296875 23.8125 C-14.625 22.21875 -14.625 22.21875 -16.0546875 20.3125 C-18.35046614 17.27199927 -18.35046614 17.27199927 -21.9296875 15.8125 C-26.6131042 15.39972429 -30.66149592 15.24310786 -34.9921875 17.1875 C-38.29370696 19.95651632 -38.17717965 22.56102922 -38.55078125 26.7421875 C-37.74872057 29.41572309 -36.36828637 30.43924554 -34.01831055 31.85693359 C-28.44248824 34.40792933 -22.24849163 35.54640165 -16.31445312 36.9921875 C-4.80537927 39.98191685 3.72112812 45.39848044 10.16796875 55.5390625 C13.56414852 62.71053047 13.25705912 73.02528481 11.37890625 80.6015625 C10.4525371 82.85740705 9.41603216 84.78130439 8.0703125 86.8125 C7.6578125 87.44542969 7.2453125 88.07835937 6.8203125 88.73046875 C1.36398216 96.00040889 -7.19488894 99.24801514 -15.9296875 100.8125 C-32.07666263 102.35983296 -46.96596354 100.25137429 -59.9296875 89.8125 C-64.66724215 85.06560106 -66.20253542 81.53461705 -66.9296875 74.8125 C-63.51773802 73.77542107 -60.09953105 72.76071392 -56.6796875 71.75 C-55.71160156 71.45544922 -54.74351562 71.16089844 -53.74609375 70.85742188 C-52.81152344 70.58349609 -51.87695312 70.30957031 -50.9140625 70.02734375 C-49.62580566 69.64243774 -49.62580566 69.64243774 -48.31152344 69.24975586 C-45.76505111 68.78227616 -44.33555305 68.90329512 -41.9296875 69.8125 C-40.4375 71.37109375 -40.4375 71.37109375 -39.0546875 73.25 C-36.27281711 76.62848099 -34.39045307 78.11277207 -29.9296875 78.8125 C-24.60287997 78.78416592 -20.23697003 78.17756448 -15.9296875 74.8125 C-14.36538502 71.68389505 -14.57341466 69.25647075 -14.9296875 65.8125 C-18.59221072 62.11509561 -22.59255628 60.68938656 -27.4921875 59.3125 C-28.9181685 58.88738821 -30.3439481 58.46160029 -31.76953125 58.03515625 C-32.82309814 57.72602295 -32.82309814 57.72602295 -33.89794922 57.41064453 C-45.90267806 53.87644775 -54.34792316 50.17257092 -61.9296875 39.8125 C-66.09794215 32.01606356 -65.97004047 23.02863176 -63.8046875 14.625 C-61.16459203 6.85275633 -56.18867308 0.70071427 -48.9296875 -3.1875 C-33.9821765 -9.53289099 -13.4628489 -9.93568185 0 0 Z " fill="#662D91" transform="translate(439.9296875,966.1875)"/>
<path d="M0 0 C2.42149177 2.07015926 4.63988988 4.10083361 6.75 6.49609375 C7.24242188 7.04652344 7.73484375 7.59695313 8.2421875 8.1640625 C16.11206101 17.65881039 18.6264234 30.40145089 17.75 42.49609375 C15.13171644 61.27763962 8.12521759 76.01347138 -6.25 88.49609375 C-20.50112024 98.83036883 -35.10302115 100.67049942 -52.25 99.49609375 C-64.7191776 97.43240135 -74.90426174 90.74095005 -82.25 80.49609375 C-90.37213489 66.97617643 -90.79731621 52.00511195 -87.21875 36.9453125 C-82.82345255 21.29592682 -73.99664546 8.04861542 -59.95703125 -0.51171875 C-41.83228377 -10.12728956 -17.38205678 -13.20114539 0 0 Z M-60.5 23.12109375 C-69.00770703 34.32885152 -71.54285576 46.74230907 -70.25 60.49609375 C-68.59832783 67.53365343 -65.27259494 73.68106142 -59.24609375 77.8984375 C-50.4969169 83.14794361 -42.2616911 84.39632974 -32.25 82.49609375 C-21.40957857 79.76127619 -13.29224543 72.20376978 -7.49609375 62.828125 C-1.70791534 51.99570334 0.90259515 40.36898594 -2.05078125 28.1953125 C-5.06559513 20.04184678 -9.72856209 14.12747369 -17.66796875 10.34375 C-33.57926481 4.85447934 -49.76223471 10.59704601 -60.5 23.12109375 Z " fill="#4D4D4D" transform="translate(2115.25,967.50390625)"/>
<path d="M0 0 C5.65101671 4.94595503 8.60146167 9.77549372 9.3125 17.3125 C8.56595584 26.12172103 5.1831889 32.69831793 -1 39 C-11.71232877 48 -11.71232877 48 -15 48 C-9.16427281 60.63004247 -9.16427281 60.63004247 0 70 C0.19335938 69.40832031 0.38671875 68.81664062 0.5859375 68.20703125 C0.84632812 67.41683594 1.10671875 66.62664062 1.375 65.8125 C1.63023438 65.03519531 1.88546875 64.25789063 2.1484375 63.45703125 C3.01991102 60.94255032 4.0116485 58.47087874 5 56 C10.28 56.33 15.56 56.66 21 57 C20.49611804 65.73395399 17.48485426 74.03817812 12.125 81 C9.7874154 83.63440478 9.7874154 83.63440478 10.11328125 85.8046875 C11.35800973 88.88635008 13.16505817 91.40098299 15.0625 94.125 C19 99.78558875 19 99.78558875 19 102 C15.58378212 102.14539953 12.16836009 102.23409725 8.75 102.3125 C7.78191406 102.35439453 6.81382813 102.39628906 5.81640625 102.43945312 C-1.4019949 102.56390832 -1.4019949 102.56390832 -4.671875 99.48046875 C-5.11015625 98.66191406 -5.5484375 97.84335938 -6 97 C-7.051875 97.50660156 -7.051875 97.50660156 -8.125 98.0234375 C-21.17493553 104.15832567 -35.81650724 107.53231912 -50 103 C-57.38959707 99.93262009 -61.52237115 96.07945872 -65 89 C-67.62137312 80.48053738 -65.74927597 72.82311613 -62 65 C-57.90775231 58.03519962 -52.16513003 53.54332812 -45.671875 48.9453125 C-43.54911259 47.3997925 -41.76708831 45.92443179 -40 44 C-40.40992188 43.34773437 -40.81984375 42.69546875 -41.2421875 42.0234375 C-46.39791272 33.66080186 -49.28843145 26.98195311 -48 17 C-45.37728345 8.60730703 -40.23394804 2.79088685 -32.53125 -1.31640625 C-22.25059895 -5.65544574 -9.64784334 -6.15673425 0 0 Z M-29.875 17.375 C-31.32512184 20.75861763 -31.62371432 22.3270157 -31 26 C-29.20386666 29.47252446 -27.16165916 32.74464424 -25 36 C-20.79597855 34.59614364 -18.07810793 32.59912401 -14.8125 29.625 C-13.95269531 28.85414063 -13.09289063 28.08328125 -12.20703125 27.2890625 C-9.26372767 24.2363618 -8.14872966 22.18983726 -7.625 18 C-7.80426395 14.98222721 -7.80426395 14.98222721 -9.375 12.625 C-16.75877317 8.0540928 -24.765473 10.90293247 -29.875 17.375 Z M-43 67 C-46.51590567 71.07411818 -47.90061854 75.6334014 -48 81 C-46.38425771 84.74171898 -44.43640649 86.86353012 -41 89 C-32.71800822 90.38448959 -24.5264543 88.52176813 -17 85 C-15.97463181 84.02602871 -14.96960911 83.02949414 -14 82 C-16.25594925 78.57911509 -18.51635285 75.1612234 -20.78100586 71.74609375 C-21.55145648 70.58285482 -22.32066485 69.41879215 -23.08862305 68.25390625 C-24.18995775 66.58379715 -25.29607476 64.91684476 -26.40234375 63.25 C-27.06741943 62.24453125 -27.73249512 61.2390625 -28.41772461 60.203125 C-28.93987549 59.47609375 -29.46202637 58.7490625 -30 58 C-33.91827666 58 -39.97224498 64.44966727 -43 67 Z " fill="#4D4D4D" transform="translate(1526,963)"/>
<path d="M0 0 C5.63758524 -0.07477921 11.27487465 -0.1288965 16.9128418 -0.16479492 C18.82630449 -0.17977783 20.73973347 -0.20017126 22.65307617 -0.22631836 C43.09281421 -0.49842137 43.09281421 -0.49842137 52 3 C53.08365845 3.41922729 53.08365845 3.41922729 54.18920898 3.84692383 C63.84688125 7.85826248 70.67596116 15.65122145 74.8828125 25.015625 C80.32722795 39.55944808 78.51144165 56.52558648 72.2890625 70.6328125 C63.18344829 87.35403132 49.877605 97.0653218 32 103 C29.06341908 103.85700422 26.47176069 104.12211169 23.41503906 104.11352539 C22.51440735 104.11344986 21.61377563 104.11337433 20.68585205 104.11329651 C19.72217712 104.10813522 18.7585022 104.10297394 17.765625 104.09765625 C16.77246277 104.0962413 15.77930054 104.09482635 14.75604248 104.09336853 C11.58733088 104.08777588 8.41869021 104.0752247 5.25 104.0625 C3.10026144 104.05748405 0.95052177 104.05292131 -1.19921875 104.04882812 C-6.46616999 104.03780886 -11.73307993 104.021078 -17 104 C-16.4091197 92.94023903 -14.49229567 82.11465342 -12.65625 71.2109375 C-12.32343938 69.21511267 -11.99096619 67.21923155 -11.65881348 65.22329712 C-10.96587193 61.06582624 -10.26961177 56.90892965 -9.57080078 52.75244141 C-8.67410704 47.41793775 -7.78470226 42.08224977 -6.89759064 36.74614525 C-6.21378331 32.63663501 -5.5267528 28.52766897 -4.83866882 24.41887283 C-4.50926668 22.45016567 -4.18074198 20.48131149 -3.85310364 18.51231003 C-3.39680366 15.77377165 -2.93631191 13.03597182 -2.47460938 10.29833984 C-2.33951462 9.48281647 -2.20441986 8.66729309 -2.06523132 7.82705688 C-1.11438029 2.22876058 -1.11438029 2.22876058 0 0 Z M15 17 C13.55992086 25.37032846 12.12522707 33.74155474 10.69733429 42.1139698 C10.03408706 46.00189203 9.36901316 49.88948303 8.69970703 53.77636719 C8.05344879 57.52981176 7.41206435 61.2840599 6.77400208 65.0389061 C6.53013779 66.4688654 6.2845406 67.89853033 6.03715515 69.32788467 C5.69005821 71.33514428 5.34977923 73.34357919 5.00976562 75.35205078 C4.7166449 77.0641423 4.7166449 77.0641423 4.41760254 78.81082153 C4.01101395 81.91588781 3.92363495 84.87268855 4 88 C19.12618051 88.36302833 31.74302247 87.16872849 44.3125 77.75 C53.1386011 68.71864073 58.98949629 58.04564621 59.3125 45.3125 C59.2007863 37.03553071 56.99522391 30.81039293 51.4375 24.625 C43.43753568 17.4395775 35.46985374 16.76894423 25.10546875 16.90625 C24.13234741 16.91301758 23.15922607 16.91978516 22.15661621 16.92675781 C19.77093191 16.94432652 17.38554025 16.96892868 15 17 Z " fill="#4D4D4D" transform="translate(1943,961)"/>
<path d="M0 0 C6.20722892 -0.09959145 12.41398288 -0.17180805 18.62182617 -0.21972656 C20.72933057 -0.23972278 22.83678034 -0.26692893 24.9440918 -0.30175781 C52.15756372 -0.73995722 52.15756372 -0.73995722 61.5 8.17578125 C67.22094244 15.13328156 69.52165659 22.7767284 68.77734375 31.65625 C67.20248607 42.54264485 62.60886327 51.09146382 54 58 C46.38442822 63 46.38442822 63 43 63 C43.33733154 63.75506836 43.67466309 64.51013672 44.0222168 65.28808594 C45.30009259 68.15035281 46.57661681 71.01321789 47.85229492 73.87646484 C48.66549764 75.70064423 49.48018916 77.52415969 50.29492188 79.34765625 C60 101.13942676 60 101.13942676 60 104 C53.4 104 46.8 104 40 104 C36.13835411 95.88064197 32.55608442 87.68426517 29.125 79.375 C28.71967041 78.40288574 28.31434082 77.43077148 27.89672852 76.42919922 C27.52088623 75.51154785 27.14504395 74.59389648 26.7578125 73.6484375 C26.4189502 72.82520996 26.08008789 72.00198242 25.73095703 71.15380859 C25 69 25 69 25 66 C19.06 66 13.12 66 7 66 C6.7525 68.18625 6.505 70.3725 6.25 72.625 C4.99037101 83.16562968 2.97397371 93.57435247 1 104 C-4.94 104 -10.88 104 -17 104 C-16.31480815 92.93231212 -14.49514978 82.13160311 -12.65625 71.2109375 C-12.32343938 69.21511267 -11.99096619 67.21923155 -11.65881348 65.22329712 C-10.96587193 61.06582624 -10.26961177 56.90892965 -9.57080078 52.75244141 C-8.67410704 47.41793775 -7.78470226 42.08224977 -6.89759064 36.74614525 C-6.21378331 32.63663501 -5.5267528 28.52766897 -4.83866882 24.41887283 C-4.50926668 22.45016567 -4.18074198 20.48131149 -3.85310364 18.51231003 C-3.39680366 15.77377165 -2.93631191 13.03597182 -2.47460938 10.29833984 C-2.33951462 9.48281647 -2.20441986 8.66729309 -2.06523132 7.82705688 C-1.11438029 2.22876058 -1.11438029 2.22876058 0 0 Z M15 17 C14.28359826 21.05605327 13.57164962 25.11286072 12.86376953 29.17041016 C12.62247193 30.54985509 12.37997103 31.9290901 12.13623047 33.30810547 C11.78555023 35.29338504 11.43959317 37.27949708 11.09375 39.265625 C10.88427734 40.45961914 10.67480469 41.65361328 10.45898438 42.88378906 C9.90285525 46.13457898 9.90285525 46.13457898 10 50 C27.38633981 50.82605928 27.38633981 50.82605928 43.375 44.9375 C47.31078232 40.53317216 49.67926754 35.69483796 50.1953125 29.75 C49.95489293 26.01642546 49.02281408 24.02836345 46.6875 21.125 C42.35943286 17.70280738 39.69104618 16.74805055 34.140625 16.8046875 C33.02558594 16.81113281 31.91054687 16.81757812 30.76171875 16.82421875 C29.02341797 16.84935547 29.02341797 16.84935547 27.25 16.875 C25.48849609 16.88853516 25.48849609 16.88853516 23.69140625 16.90234375 C20.79406464 16.92589937 17.89713559 16.95879348 15 17 Z " fill="#4D4D4D" transform="translate(1683,961)"/>
<path d="M0 0 C5.94 0 11.88 0 18 0 C16.88619382 9.65298686 15.53038878 19.22636284 13.9375 28.8125 C13.7631543 29.86824219 13.58880859 30.92398438 13.40917969 32.01171875 C13.24192383 33.00429688 13.07466797 33.996875 12.90234375 35.01953125 C12.75273193 35.90745361 12.60312012 36.79537598 12.44897461 37.71020508 C12 40 12 40 11 43 C27.83 43 44.66 43 62 43 C62.66 37.72 63.32 32.44 64 27 C64.66037592 22.72126241 65.33707549 18.45454077 66.0625 14.1875 C66.23587891 13.14013672 66.40925781 12.09277344 66.58789062 11.01367188 C67.86826299 3.39521104 67.86826299 3.39521104 69 0 C74.94 0 80.88 0 87 0 C86.2623841 10.66820311 84.42792847 21.12221511 82.65625 31.65625 C82.32348673 33.65111631 81.99101266 35.64603088 81.65881348 37.64099121 C80.96534572 41.80015206 80.26913519 45.95884107 79.57080078 50.1171875 C78.67523857 55.45068529 77.78547414 60.78513035 76.89759064 66.11991119 C76.21319249 70.22936456 75.52633694 74.33840407 74.83866882 78.4473114 C74.50950982 80.41523267 74.180985 82.38326011 73.85310364 84.35139465 C73.39602116 87.09209661 72.93577333 89.8322479 72.47460938 92.57226562 C72.33951462 93.38576477 72.20441986 94.19926392 72.06523132 95.03741455 C71.54370886 98.11962459 70.99030272 101.02909184 70 104 C64.06 104 58.12 104 52 104 C52.68163198 94.29321541 54.32650058 84.87268327 56.0625 75.3125 C57.031875 69.929375 58.00125 64.54625 59 59 C42.17 59 25.34 59 8 59 C7.67 62.63 7.34 66.26 7 70 C6.56637263 72.85244258 6.11020281 75.67662538 5.58984375 78.51171875 C5.45808243 79.25081985 5.32632111 79.98992096 5.19056702 80.75141907 C4.77723818 83.06425404 4.35751025 85.37587011 3.9375 87.6875 C3.65256601 89.27531374 3.36805765 90.86320392 3.08398438 92.45117188 C2.39500133 96.30184391 1.69733522 100.15079489 1 104 C-4.94 104 -10.88 104 -17 104 C-16.31480815 92.93231212 -14.49514978 82.13160311 -12.65625 71.2109375 C-12.32343938 69.21511267 -11.99096619 67.21923155 -11.65881348 65.22329712 C-10.96587193 61.06582624 -10.26961177 56.90892965 -9.57080078 52.75244141 C-8.67410704 47.41793775 -7.78470226 42.08224977 -6.89759064 36.74614525 C-6.21378331 32.63663501 -5.5267528 28.52766897 -4.83866882 24.41887283 C-4.50926668 22.45016567 -4.18074198 20.48131149 -3.85310364 18.51231003 C-3.39680366 15.77377165 -2.93631191 13.03597182 -2.47460938 10.29833984 C-2.33951462 9.48281647 -2.20441986 8.66729309 -2.06523132 7.82705688 C-1.11438029 2.22876058 -1.11438029 2.22876058 0 0 Z " fill="#4D4D4D" transform="translate(1339,961)"/>
<path d="M0 0 C4.9065129 4.53120128 8.77660092 9.74242621 10.78125 16.18359375 C10.55078125 18.234375 10.55078125 18.234375 9.78125 20.18359375 C7.05012259 21.31044328 4.5481764 22.16522689 1.71875 22.93359375 C0.96013672 23.15402344 0.20152344 23.37445312 -0.58007812 23.6015625 C-2.45531113 24.14408274 -4.33653259 24.66582481 -6.21875 25.18359375 C-6.49847656 24.60351562 -6.77820312 24.0234375 -7.06640625 23.42578125 C-10.96456739 15.83000745 -15.67974713 10.34827036 -23.9921875 7.65234375 C-32.97094856 5.76207826 -41.86877927 7.14712388 -49.8203125 11.66015625 C-61.47283905 19.36983393 -68.02987137 29.01305622 -71.09375 42.62109375 C-72.96817949 53.32904151 -72.42361913 61.99716413 -66.21875 71.18359375 C-60.86573952 77.63989647 -53.84336915 79.68809884 -45.71875 80.55859375 C-33.2640112 79.22415745 -23.73878533 73.62983273 -15.71484375 64.13671875 C-14.17550388 62.25449629 -14.17550388 62.25449629 -13.21875 60.18359375 C-8.98552156 60.80404838 -5.69584705 62.28882934 -1.90625 64.24609375 C-0.30330078 65.06787109 -0.30330078 65.06787109 1.33203125 65.90625 C2.14027344 66.32777344 2.94851563 66.74929688 3.78125 67.18359375 C0.32103049 77.85749121 -10.63647942 86.24088196 -20.21875 91.18359375 C-33.8483578 97.58867324 -48.43859815 99.71615922 -63.21875 95.68359375 C-73.83697884 91.81996341 -81.83541852 85.11968556 -87.21875 75.18359375 C-93.82675813 59.7649081 -92.40418734 42.65603844 -86.48730469 27.28320312 C-82.85175839 18.54874599 -77.96291297 11.75058956 -71.21875 5.18359375 C-70.61675781 4.549375 -70.01476563 3.91515625 -69.39453125 3.26171875 C-51.15102717 -14.62562148 -19.54169488 -15.99804246 0 0 Z " fill="#4D4D4D" transform="translate(1310.21875,969.81640625)"/>
<path d="M0 0 C21.45 0 42.9 0 65 0 C64.01 5.61 63.02 11.22 62 17 C46.49 17 30.98 17 15 17 C14.67 20.63 14.34 24.26 14 28 C13.01 32.95 12.02 37.9 11 43 C24.53 43 38.06 43 52 43 C51.34 48.61 50.68 54.22 50 60 C36.14 60 22.28 60 8 60 C7.34 65.28 6.68 70.56 6 76 C5.34 79.96 4.68 83.92 4 88 C19.18 88 34.36 88 50 88 C49 100 49 100 48 104 C26.55 104 5.1 104 -17 104 C-16.38895854 96.66750243 -15.75002201 89.61692249 -14.52539062 82.40771484 C-14.30812569 81.09317322 -14.30812569 81.09317322 -14.08647156 79.7520752 C-13.61449345 76.90421313 -13.13558626 74.05756951 -12.65625 71.2109375 C-12.32343938 69.21511267 -11.99096619 67.21923155 -11.65881348 65.22329712 C-10.96587193 61.06582624 -10.26961177 56.90892965 -9.57080078 52.75244141 C-8.67410704 47.41793775 -7.78470226 42.08224977 -6.89759064 36.74614525 C-6.21378331 32.63663501 -5.5267528 28.52766897 -4.83866882 24.41887283 C-4.50926668 22.45016567 -4.18074198 20.48131149 -3.85310364 18.51231003 C-3.39680366 15.77377165 -2.93631191 13.03597182 -2.47460938 10.29833984 C-2.33951462 9.48281647 -2.20441986 8.66729309 -2.06523132 7.82705688 C-1.11438029 2.22876058 -1.11438029 2.22876058 0 0 Z " fill="#4D4D4D" transform="translate(1858,961)"/>
<path d="M0 0 C21.45 0 42.9 0 65 0 C64.01 5.61 63.02 11.22 62 17 C46.49 17 30.98 17 15 17 C14.67 20.63 14.34 24.26 14 28 C13.01 32.95 12.02 37.9 11 43 C24.53 43 38.06 43 52 43 C51.34 48.61 50.68 54.22 50 60 C36.14 60 22.28 60 8 60 C7.34 65.28 6.68 70.56 6 76 C5.34 79.96 4.68 83.92 4 88 C19.18 88 34.36 88 50 88 C49 100 49 100 48 104 C26.55 104 5.1 104 -17 104 C-16.38895854 96.66750243 -15.75002201 89.61692249 -14.52539062 82.40771484 C-14.30812569 81.09317322 -14.30812569 81.09317322 -14.08647156 79.7520752 C-13.61449345 76.90421313 -13.13558626 74.05756951 -12.65625 71.2109375 C-12.32343938 69.21511267 -11.99096619 67.21923155 -11.65881348 65.22329712 C-10.96587193 61.06582624 -10.26961177 56.90892965 -9.57080078 52.75244141 C-8.67410704 47.41793775 -7.78470226 42.08224977 -6.89759064 36.74614525 C-6.21378331 32.63663501 -5.5267528 28.52766897 -4.83866882 24.41887283 C-4.50926668 22.45016567 -4.18074198 20.48131149 -3.85310364 18.51231003 C-3.39680366 15.77377165 -2.93631191 13.03597182 -2.47460938 10.29833984 C-2.33951462 9.48281647 -2.20441986 8.66729309 -2.06523132 7.82705688 C-1.11438029 2.22876058 -1.11438029 2.22876058 0 0 Z " fill="#4D4D4D" transform="translate(1774,961)"/>
<path d="M0 0 C21.45 0 42.9 0 65 0 C64.01 5.61 63.02 11.22 62 17 C46.49 17 30.98 17 15 17 C14.67 20.63 14.34 24.26 14 28 C13.01 32.95 12.02 37.9 11 43 C24.53 43 38.06 43 52 43 C51.34 48.61 50.68 54.22 50 60 C36.14 60 22.28 60 8 60 C7.34 65.28 6.68 70.56 6 76 C5.34 79.96 4.68 83.92 4 88 C19.18 88 34.36 88 50 88 C49 100 49 100 48 104 C26.55 104 5.1 104 -17 104 C-16.38895854 96.66750243 -15.75002201 89.61692249 -14.52539062 82.40771484 C-14.30812569 81.09317322 -14.30812569 81.09317322 -14.08647156 79.7520752 C-13.61449345 76.90421313 -13.13558626 74.05756951 -12.65625 71.2109375 C-12.32343938 69.21511267 -11.99096619 67.21923155 -11.65881348 65.22329712 C-10.96587193 61.06582624 -10.26961177 56.90892965 -9.57080078 52.75244141 C-8.67410704 47.41793775 -7.78470226 42.08224977 -6.89759064 36.74614525 C-6.21378331 32.63663501 -5.5267528 28.52766897 -4.83866882 24.41887283 C-4.50926668 22.45016567 -4.18074198 20.48131149 -3.85310364 18.51231003 C-3.39680366 15.77377165 -2.93631191 13.03597182 -2.47460938 10.29833984 C-2.33951462 9.48281647 -2.20441986 8.66729309 -2.06523132 7.82705688 C-1.11438029 2.22876058 -1.11438029 2.22876058 0 0 Z " fill="#4D4D4D" transform="translate(1150,961)"/>
<path d="M0 0 C28.05 0 56.1 0 85 0 C85 7.59 85 15.18 85 23 C75.1 23 65.2 23 55 23 C55 49.73 55 76.46 55 104 C46.75 104 38.5 104 30 104 C30 77.27 30 50.54 30 23 C20.1 23 10.2 23 0 23 C0 15.41 0 7.82 0 0 Z " fill="#662D91" transform="translate(456,961)"/>
<path d="M0 0 C1.26670746 0.61632968 2.53146489 1.23666796 3.79541016 1.85864258 C4.49993317 2.20365311 5.20445618 2.54866364 5.93032837 2.90412903 C15.15273018 7.78730097 23.47057114 15.87821538 31 23 C31.87140625 23.80695313 32.7428125 24.61390625 33.640625 25.4453125 C57.04535633 47.84698391 72.46910577 78.70080538 80 110 C80 110.66 80 111.32 80 112 C75.96378111 110.51437573 72.39786923 108.58486042 68.6953125 106.40234375 C68.09427704 106.04918594 67.49324158 105.69602814 66.87399292 105.33216858 C64.95573083 104.20385474 63.04037822 103.07070089 61.125 101.9375 C59.87778349 101.20347125 58.63038895 100.46974493 57.3828125 99.73632812 C49.83374709 95.29296963 42.31463531 90.80049524 34.80712891 86.28735352 C31.54548593 84.3266473 28.28047444 82.3716297 25.01425171 80.41856384 C22.37756523 78.84187369 19.74174556 77.26373757 17.10595703 75.68554688 C15.7605525 74.88036024 14.41483841 74.07569067 13.06884766 73.27148438 C11.08935259 72.08859812 9.11097314 70.90386611 7.1328125 69.71875 C6.52881622 69.35841675 5.92481995 68.9980835 5.30252075 68.62683105 C1.11386951 66.11386951 1.11386951 66.11386951 0 65 C-0.09409479 62.97505769 -0.11743122 60.9468013 -0.11352539 58.91967773 C-0.11344986 57.61840439 -0.11337433 56.31713104 -0.11329651 54.97642517 C-0.10818909 53.54548098 -0.10297308 52.11453718 -0.09765625 50.68359375 C-0.09579203 49.2277074 -0.09436815 47.77182043 -0.09336853 46.31593323 C-0.08954365 42.47720621 -0.07971364 38.63851681 -0.06866455 34.79980469 C-0.05844978 30.88542184 -0.05387077 26.97103294 -0.04882812 23.05664062 C-0.03809134 15.37107657 -0.02101529 7.68554355 0 0 Z " fill="#F58F1E" transform="translate(1887,348)"/>
<path d="M0 0 C0.99 0.495 0.99 0.495 2 1 C-6.70560101 31.97356726 -18.97686735 60.18478039 -41.58349609 83.53222656 C-43.00475513 85.00492724 -44.40278442 86.49742498 -45.80078125 87.9921875 C-54.56386892 97.20650322 -64.75752034 105.94007902 -76 112 C-76.66 112 -77.32 112 -78 112 C-79.25880523 96.27788156 -80.17594597 80.48011883 -79.78795624 64.70261955 C-79.76039097 63.275406 -79.75307046 61.8476352 -79.76755524 60.42022896 C-79.82157879 52.96298986 -79.13700848 47.41332716 -73.89583683 41.97680569 C-67.83813539 36.29480809 -62.04979319 33.63925727 -54.02929688 31.36914062 C-47.77624303 29.40673406 -42.40806278 25.82926122 -36.88623047 22.37738037 C-34.49536345 20.89941167 -32.06734725 19.49070952 -29.6348877 18.08261108 C-21.68661544 13.48100135 -13.88513733 8.64537454 -6.16625977 3.66894531 C-5.37533936 3.16717773 -4.58441895 2.66541016 -3.76953125 2.1484375 C-3.08479736 1.70677246 -2.40006348 1.26510742 -1.69458008 0.81005859 C-1.13536865 0.54273926 -0.57615723 0.27541992 0 0 Z " fill="#F68F1E" transform="translate(1965,577)"/>
<path d="M0 0 C21.45 0 42.9 0 65 0 C64.48342589 5.68231526 63.93801913 11.37188525 63 17 C47.16 17 31.32 17 15 17 C14.67 20.63 14.34 24.26 14 28 C13.01 33.61 12.02 39.22 11 45 C24.2 45 37.4 45 51 45 C49 59 49 59 48 61 C34.8 61 21.6 61 8 61 C7.5875 64.01125 7.175 67.0225 6.75 70.125 C5.1599563 81.47843811 3.12740321 92.73664188 1 104 C-4.94 104 -10.88 104 -17 104 C-16.31480815 92.93231212 -14.49514978 82.13160311 -12.65625 71.2109375 C-12.32343938 69.21511267 -11.99096619 67.21923155 -11.65881348 65.22329712 C-10.96587193 61.06582624 -10.26961177 56.90892965 -9.57080078 52.75244141 C-8.67410704 47.41793775 -7.78470226 42.08224977 -6.89759064 36.74614525 C-6.21378331 32.63663501 -5.5267528 28.52766897 -4.83866882 24.41887283 C-4.50926668 22.45016567 -4.18074198 20.48131149 -3.85310364 18.51231003 C-3.39680366 15.77377165 -2.93631191 13.03597182 -2.47460938 10.29833984 C-2.33951462 9.48281647 -2.20441986 8.66729309 -2.06523132 7.82705688 C-1.11438029 2.22876058 -1.11438029 2.22876058 0 0 Z " fill="#4D4D4D" transform="translate(1605,961)"/>
<path d="M0 0 C27.06 0 54.12 0 82 0 C81 12 81 12 80 17 C69.44 17 58.88 17 48 17 C47.6596875 19.19785156 47.319375 21.39570312 46.96875 23.66015625 C44.16982902 41.65246639 41.26553464 59.62549382 38.22460938 77.57858276 C37.86627774 79.69438854 37.50902008 81.81037649 37.15283203 83.92654419 C36.65092355 86.90475477 36.14457575 89.88217374 35.63671875 92.859375 C35.48591354 93.75661789 35.33510834 94.65386078 35.17973328 95.57829285 C35.03880753 96.39775894 34.89788177 97.21722504 34.75268555 98.06152344 C34.5699836 99.13536285 34.5699836 99.13536285 34.3835907 100.230896 C34 102 34 102 33 104 C27.06 104 21.12 104 15 104 C17.42982611 86.26144014 20.33630327 68.61703759 23.30517578 50.96295166 C24.06513765 46.43994107 24.82128186 41.91629072 25.57810211 37.3927536 C26.71588818 30.59468768 27.85837339 23.79742701 29 17 C18.77 17 8.54 17 -2 17 C-1.34 11.39 -0.68 5.78 0 0 Z " fill="#4D4D4D" transform="translate(1058,961)"/>
<path d="M0 0 C7.92 0 15.84 0 24 0 C24 34.32 24 68.64 24 104 C16.08 104 8.16 104 0 104 C0 69.68 0 35.36 0 0 Z " fill="#662D91" transform="translate(771,961)"/>
</svg>
